<?xml version="1.0" encoding="UTF-8" standalone="no"?>
<!-- Created with Inkscape (http://www.inkscape.org/) -->

<svg
   xmlns:dc="http://purl.org/dc/elements/1.1/"
   xmlns:cc="http://creativecommons.org/ns#"
   xmlns:rdf="http://www.w3.org/1999/02/22-rdf-syntax-ns#"
   xmlns:svg="http://www.w3.org/2000/svg"
   xmlns="http://www.w3.org/2000/svg"
   xmlns:sodipodi="http://sodipodi.sourceforge.net/DTD/sodipodi-0.dtd"
   xmlns:inkscape="http://www.inkscape.org/namespaces/inkscape"
   width="210mm"
   height="297mm"
   viewBox="0 0 210 297"
   version="1.1"
   id="svg1043"
   sodipodi:docname="logo.svg"
   inkscape:version="0.92.3 (2405546, 2018-03-11)">
  <defs
     id="defs1037" />
  <sodipodi:namedview
     id="base"
     pagecolor="#ffffff"
     bordercolor="#666666"
     borderopacity="1.0"
     inkscape:pageopacity="0.0"
     inkscape:pageshadow="2"
     inkscape:zoom="0.50000001"
     inkscape:cx="-389.27505"
     inkscape:cy="548.34916"
     inkscape:document-units="mm"
     inkscape:current-layer="g5081"
     showgrid="false"
     inkscape:window-width="1920"
     inkscape:window-height="1001"
     inkscape:window-x="-9"
     inkscape:window-y="-9"
     inkscape:window-maximized="1" />
  <metadata
     id="metadata1040">
    <rdf:RDF>
      <cc:Work
         rdf:about="">
        <dc:format>image/svg+xml</dc:format>
        <dc:type
           rdf:resource="http://purl.org/dc/dcmitype/StillImage" />
      </cc:Work>
    </rdf:RDF>
  </metadata>
  <g
     inkscape:label="Layer 1"
     inkscape:groupmode="layer"
     id="layer1">
    <g
       id="g4925"
       transform="matrix(1.7277539,0,0,1.8524154,42.122286,67.424506)">
      <g
         id="color">
        <path
           id="path4860"
           d="m 24.7544,17.9188 -6.6667,-5.3333 -8.1667,1 -3,4.6667 0.5,6.6667 3.8333,5.8333 c 0,0 1.8333,1.1667 2.6667,1.6667 l -2.5,7.6667 -0.3333,6.3333 1.5,5.5 2.8333,3.6667 5.5,3.8333 c 0,0 15.6667,9 30.6667,0.1667 l 5.8333,-4.8333 3.1667,-6 0.6667,-4.6667 -1.3333,-8.8333 -1.6667,-2.5 2.8333,-2.1667 2.5,-4.8333 1.6667,-5.3333 -1.6667,-5 -4.3333,-3 -4.1667,-0.1667 -6,3.8333 -1.3333,1.5 -8.3333,-1.6667 h -8.1667 z"
           inkscape:connector-curvature="0"
           style="fill:#6a462f;stroke:none" />
        <path
           id="path4862"
           d="m 29.5877,37.7521 -2,5 -0.8333,6.6667 2,3.1667 0.3333,4.3333 2.8333,2.1667 8.6667,-0.3333 2.3333,-1 0.1667,-5.1667 2,-3.1667 -1.1667,-6.6667 -2.5,-5.5 c 0,0 -7,-4.8333 -11.8333,0.5 z"
           inkscape:connector-curvature="0"
           style="fill:#a57939;stroke:none" />
        <path
           id="path4864"
           d="m 30.7544,47.7521 c 0,0 4.3333,-4.6667 9.8333,-0.3333 l -1.8333,2.8333 -6,-0.1667 z"
           inkscape:connector-curvature="0"
           style="fill:#3f3f3f;stroke:none" />
        <path
           id="path4866"
           d="m 47.7544,18.4188 c 0,0 12.8333,-4 15.1667,8 l 2,-4 -0.1667,-5.5 -3.5,-3.8333 -5.5,-1.3333 -5.5,3.6667 z"
           inkscape:connector-curvature="0"
           style="fill:#a57939;stroke:none" />
        <path
           id="path4868"
           d="m 24.2544,18.4188 c 0,0 -12.8333,-4 -15.1667,8 l -2,-4 0.1667,-5.5 3.5,-3.8333 5.5,-1.3333 5.5,3.6667 z"
           inkscape:connector-curvature="0"
           style="fill:#a57939;stroke:none" />
      </g>
      <g
         id="hair" />
      <g
         id="skin" />
      <g
         id="skin-shadow" />
      <g
         id="line">
        <circle
           id="circle4874"
           r="2"
           cy="36.999001"
           cx="28.6339"
           style="fill:#000000;stroke:none" />
        <path
           id="path4876"
           d="m 26.0089,19.8949 c 0,0 -7.6875,-11.625 -14.9375,-6.8125 -6.6011,4.3818 -3.9113,13.9584 0.603,16.915"
           stroke-miterlimit="10"
           inkscape:connector-curvature="0"
           style="fill:none;stroke:#000000;stroke-width:2;stroke-linecap:round;stroke-linejoin:round;stroke-miterlimit:10" />
        <path
           id="path4878"
           d="M 21.0714,58.5824 C 5.1339,52.2699 13.2208,34.5691 13.2208,34.5691 c 0,0 3.645,-9.3586 9.3416,-11.6086"
           stroke-miterlimit="10"
           inkscape:connector-curvature="0"
           style="fill:none;stroke:#000000;stroke-width:2;stroke-linecap:round;stroke-linejoin:round;stroke-miterlimit:10" />
        <path
           id="path4880"
           d="m 51.0978,58.5824 c 15.9375,-6.3125 7.8506,-24.0133 7.8506,-24.0133 0,0 -3.645,-9.3586 -9.3416,-11.6086"
           stroke-miterlimit="10"
           inkscape:connector-curvature="0"
           style="fill:none;stroke:#000000;stroke-width:2;stroke-linecap:round;stroke-linejoin:round;stroke-miterlimit:10" />
        <circle
           id="circle4882"
           r="2"
           cy="36.999001"
           cx="43.3661"
           style="fill:#000000;stroke:none" />
        <path
           id="path4884"
           d="m 43.495,43.3313 1.5607,4.8039 c 0.2196,0.8168 0.0853,1.6816 -0.3675,2.3961 -1.2194,1.924 -4.0542,5.1185 -8.2597,2.2386 h -0.8572 c -4.2055,2.8798 -7.0402,-0.3147 -8.2597,-2.2386 -0.4528,-0.7144 -0.5871,-1.5793 -0.3675,-2.3961 l 1.5607,-4.8039"
           stroke-miterlimit="10"
           inkscape:connector-curvature="0"
           style="fill:none;stroke:#000000;stroke-width:2;stroke-linecap:round;stroke-linejoin:round;stroke-miterlimit:10" />
        <path
           id="path4886"
           d="m 40.172,47.9243 c -0.1014,3.008 -2.8052,1.6561 -2.8052,1.6561 L 36,48.9038 34.6333,49.5804 c 0,0 -2.7039,1.3519 -2.8052,-1.6561"
           stroke-miterlimit="10"
           inkscape:connector-curvature="0"
           style="fill:none;stroke:#000000;stroke-width:2;stroke-linecap:round;stroke-linejoin:round;stroke-miterlimit:10" />
        <path
           id="path4888"
           d="m 45.9911,19.8949 c 0,0 7.6875,-11.625 14.9375,-6.8125 6.6011,4.3818 3.9113,13.9584 -0.603,16.915"
           stroke-miterlimit="10"
           inkscape:connector-curvature="0"
           style="fill:none;stroke:#000000;stroke-width:2;stroke-linecap:round;stroke-linejoin:round;stroke-miterlimit:10" />
        <path
           id="path4890"
           d="m 29.9464,57.1478 c 0,0 5.1875,6.6013 12.1072,0.5625"
           stroke-miterlimit="10"
           inkscape:connector-curvature="0"
           style="fill:none;stroke:#000000;stroke-width:2;stroke-linecap:round;stroke-linejoin:round;stroke-miterlimit:10" />
        <path
           id="path4892"
           d="m 24.6652,17.9512 c 0,0 8.7098,-4.9304 22.3259,0"
           stroke-miterlimit="10"
           inkscape:connector-curvature="0"
           style="fill:none;stroke:#000000;stroke-width:2;stroke-linecap:round;stroke-linejoin:round;stroke-miterlimit:10" />
        <line
           id="line4894"
           stroke-miterlimit="10"
           y2="49.580399"
           y1="52.769901"
           x2="36"
           x1="36"
           style="fill:none;stroke:#000000;stroke-width:2;stroke-linecap:round;stroke-linejoin:round;stroke-miterlimit:10" />
      </g>
    </g>
    <g
       id="g5081"
       transform="matrix(0.13977512,0,0,0.15042792,42.462675,-7.1599024)">
      <path
         id="path4990"
         d="m 676.36117,760.31517 h -470.03 c 0,-110.063 75.651,-202.432 177.795,-227.974 7.605,-1.916 15.348,-3.448 23.22,-4.586 h 68.023 c 113.673,16.475 200.992,114.313 200.992,232.56 z"
         style="fill:#FFA90A"
         inkscape:connector-curvature="0" />
      <g
         id="g4996"
         transform="translate(194.23517,460.89917)">
        <path
           id="path4992"
           d="M 344.574,308.121 H 122.196 c 42.632,0 77.183,-34.551 77.183,-77.172 V 80.148 c 7.605,-1.916 15.348,-3.448 23.22,-4.586 h 44.698 c 0.058,0.534 0.093,1.08 0.093,1.637 V 230.95 c 0.001,42.62 34.552,77.171 77.184,77.171 z"
           style="fill:#DA8B04"
           inkscape:connector-curvature="0" />
        <path
           id="path4994"
           d="M 275.507,75.558 H 222.601 C 108.914,92.033 21.59,189.876 21.59,308.122 H 74.496 C 74.495,189.876 161.82,92.033 275.507,75.558 Z"
           style="fill:#DA8B04"
           inkscape:connector-curvature="0" />
      </g>
      <path
         id="path4998"
         d="m 484.84717,691.84517 v -153.743 c 0,-7.848 -6.362,-14.211 -14.211,-14.211 h -39.591 c -7.848,0 -14.211,6.362 -14.211,14.211 v 153.743 c 0,42.624 -34.554,77.177 -77.177,77.177 h -136.11 v 68.481 h 494.585 v -68.481 h -136.11 c -42.623,0.001 -77.175,-34.553 -77.175,-77.177 z"
         style="fill:#FFA90A"
         inkscape:connector-curvature="0" />
      <rect
         id="rect5000"
         height="68.481003"
         width="87.458"
         style="fill:#DA8B04"
         y="769.02716"
         x="203.54617" />
      <path
         id="path5002"
         d="m 596.06917,837.50817 c -1.103,22.268 -38.057,66.815 -38.057,66.815 -66.548,6.711 -133.55,7.384 -200.191,2.009 -7.372,-0.592 -14.745,-1.266 -22.105,-2.009 0,0 -36.955,-44.547 -38.046,-66.815 z"
         style="fill:#FFA90A"
         inkscape:connector-curvature="0" />
      <path
         id="path5004"
         d="m 357.82117,906.33117 c -7.372,-0.592 -14.745,-1.266 -22.105,-2.009 0,0 -36.955,-44.547 -38.046,-66.815 h 51.003 c -9.15,24.649 9.148,68.824 9.148,68.824 z"
         style="fill:#DA8B04"
         inkscape:connector-curvature="0" />
      <path
         id="path5006"
         d="m 697.52817,760.31517 h -3.744 c -1.991,-55.81 -23.055,-109.301 -59.849,-151.465 -37.122,-42.539 -87.74,-70.865 -143.033,-80.163 -3.601,-7.949 -11.593,-13.502 -20.871,-13.502 h -39.59 c -9.283,0 -17.278,5.559 -20.877,13.514 -14.958,2.516 -29.699,6.431 -43.895,11.682 -4.51,1.668 -6.814,6.677 -5.146,11.187 1.3,3.514 4.628,5.689 8.168,5.689 1.003,0 2.024,-0.174 3.02,-0.543 11.611,-4.296 23.62,-7.62 35.812,-9.95 v 145.081 c 0,37.754 -30.715,68.47 -68.47,68.47 h -114.943 c 3.033,-78.832 47.07,-150.796 116.484,-189.311 4.205,-2.334 5.723,-7.634 3.389,-11.839 -2.334,-4.205 -7.635,-5.723 -11.839,-3.389 -74.946,41.585 -122.432,119.38 -125.474,204.54 h -3.728 c -4.809,0 -8.707,3.899 -8.707,8.707 v 68.483 c 0,4.809 3.899,8.707 8.707,8.707 h 86.866 c 6.784,24.764 35.049,59.391 38.602,63.675 1.459,1.76 3.554,2.876 5.829,3.105 37.166,3.748 74.593,5.622 112.02,5.622 37.427,0 74.854,-1.874 112.02,-5.622 2.274,-0.229 4.369,-1.344 5.828,-3.105 3.555,-4.284 31.821,-38.911 38.604,-63.675 h 94.815 c 4.81,0 8.707,-3.899 8.707,-8.707 v -68.483 c 0.002,-4.81 -3.895,-8.708 -8.705,-8.708 z m -8.708,68.482 h -117.664 c -4.81,0 -8.707,3.899 -8.707,8.707 0,4.809 3.897,8.707 8.707,8.707 h 13.328 c -5.64,14.734 -20.537,36.122 -31.539,49.808 -70.813,6.904 -142.561,6.904 -213.375,0 -11.003,-13.68 -25.902,-35.067 -31.54,-49.808 h 231.635 c 4.81,0 8.707,-3.899 8.707,-8.707 0,-4.809 -3.897,-8.707 -8.707,-8.707 h -328.015 v -51.068 h 127.402 c 47.357,0 85.885,-38.528 85.885,-85.885 v -153.742 c 0,-3.035 2.468,-5.503 5.503,-5.503 h 39.591 c 3.035,0 5.503,2.468 5.503,5.503 v 48.624 c 0,4.809 3.897,8.707 8.707,8.707 4.81,0 8.708,-3.899 8.708,-8.707 v -39.979 c 49.403,9.449 94.501,35.318 127.865,73.553 34.025,38.991 53.564,88.417 55.547,140.015 h -114.942 c -37.755,0 -68.47,-30.715 -68.47,-68.47 v -73.63 c 0,-4.809 -3.897,-8.707 -8.707,-8.707 -4.81,0 -8.707,3.899 -8.707,8.707 v 73.63 c 0,47.357 38.528,85.885 85.885,85.885 h 127.401 v 51.067 z"
         inkscape:connector-curvature="0" />
      <circle
         id="circle5008"
         r="8.7069998"
         cy="710.29218"
         cx="641.04517" />
      <circle
         id="circle5010"
         r="8.7069998"
         cy="740.97821"
         cx="641.04517" />
      <circle
         id="circle5012"
         r="8.7069998"
         cy="710.29218"
         cx="259.41318" />
      <circle
         id="circle5014"
         r="8.7069998"
         cy="740.97821"
         cx="259.41318" />
      <g
         id="g5016" />
      <g
         id="g5018" />
      <g
         id="g5020" />
      <g
         id="g5022" />
      <g
         id="g5024" />
      <g
         id="g5026" />
      <g
         id="g5028" />
      <g
         id="g5030" />
      <g
         id="g5032" />
      <g
         id="g5034" />
      <g
         id="g5036" />
      <g
         id="g5038" />
      <g
         id="g5040" />
      <g
         id="g5042" />
      <g
         id="g5044" />
      <flowRoot
         xml:space="preserve"
         id="flowRoot873"
         style="fill:black;fill-opacity:1;stroke:none;font-family:sans-serif;font-style:normal;font-weight:normal;font-size:40px;line-height:1.25;letter-spacing:0px;word-spacing:0px;-inkscape-font-specification:'sans-serif, Normal';font-stretch:normal;font-variant:normal;text-anchor:start;text-align:start;writing-mode:lr;font-variant-ligatures:normal;font-variant-caps:normal;font-variant-numeric:normal;font-feature-settings:normal"><flowRegion
           id="flowRegion875"><rect
             id="rect877"
             width="540.22955"
             height="186.67619"
             x="73.539101"
             y="740.68201" /></flowRegion><flowPara
           id="flowPara879" /></flowRoot>      <flowRoot
         xml:space="preserve"
         id="flowRoot881"
         style="fill:black;fill-opacity:1;stroke:none;font-family:sans-serif;font-style:normal;font-weight:normal;font-size:40px;line-height:1.25;letter-spacing:0px;word-spacing:0px;-inkscape-font-specification:'sans-serif, Normal';font-stretch:normal;font-variant:normal;text-anchor:start;text-align:start;writing-mode:lr;font-variant-ligatures:normal;font-variant-caps:normal;font-variant-numeric:normal;font-feature-settings:normal"><flowRegion
           id="flowRegion883"><rect
             id="rect885"
             width="565.68542"
             height="203.64674"
             x="118.79394"
             y="805.73584" /></flowRegion><flowPara
           id="flowPara887" /></flowRoot>      <flowRoot
         xml:space="preserve"
         id="flowRoot889"
         style="fill:black;fill-opacity:1;stroke:none;font-family:Elephant;font-style:normal;font-weight:normal;font-size:40px;line-height:1.25;letter-spacing:0px;word-spacing:0px;-inkscape-font-specification:Elephant;font-stretch:normal;font-variant:normal;text-anchor:start;text-align:start;writing-mode:lr;font-variant-ligatures:normal;font-variant-caps:normal;font-variant-numeric:normal;font-feature-settings:normal;"><flowRegion
           id="flowRegion891"
           style="-inkscape-font-specification:Elephant;font-family:Elephant;font-weight:normal;font-style:normal;font-stretch:normal;font-variant:normal;"><rect
             id="rect893"
             width="475.17575"
             height="203.64674"
             x="101.82337"
             y="788.76526"
             style="-inkscape-font-specification:Elephant;font-family:Elephant;font-weight:normal;font-style:normal;font-stretch:normal;font-variant:normal;" /></flowRegion><flowPara
           id="flowPara895" /></flowRoot>      <text
         xml:space="preserve"
         style="font-style:italic;font-variant:normal;font-weight:bold;font-stretch:normal;font-size:175.16790771px;line-height:1.25;font-family:sans-serif;-inkscape-font-specification:'sans-serif, Bold Italic';font-variant-ligatures:normal;font-variant-caps:normal;font-variant-numeric:normal;font-feature-settings:normal;text-align:start;letter-spacing:0px;word-spacing:0px;writing-mode:lr-tb;text-anchor:start;fill:#000000;fill-opacity:1;stroke:none;stroke-width:1.82466578"
         x="-101.77503"
         y="1669.0647"
         id="text897"
         transform="scale(1.0374073,0.96394157)"><tspan
           sodipodi:role="line"
           x="-101.77503"
           y="1669.0647"
           id="tspan895"
           style="stroke-width:1.82466578"><tspan
             x="-101.77503"
             y="1669.0647"
             style="font-style:italic;font-variant:normal;font-weight:bold;font-stretch:normal;font-size:175.16790771px;font-family:sans-serif;-inkscape-font-specification:'sans-serif, Bold Italic';font-variant-ligatures:normal;font-variant-caps:normal;font-variant-numeric:normal;font-feature-settings:normal;text-align:start;writing-mode:lr-tb;text-anchor:start;stroke-width:1.82466578"
             id="tspan893">Multi</tspan></tspan></text>
      <text
         xml:space="preserve"
         style="font-style:normal;font-variant:normal;font-weight:normal;font-stretch:normal;font-size:72.9866333px;line-height:1.25;font-family:sans-serif;-inkscape-font-specification:'sans-serif, Normal';font-variant-ligatures:normal;font-variant-caps:normal;font-variant-numeric:normal;font-feature-settings:normal;text-align:start;letter-spacing:0px;word-spacing:0px;writing-mode:lr-tb;text-anchor:start;fill:#ffa90a;fill-opacity:1;stroke:none;stroke-width:1.82466578"
         x="314.01306"
         y="1669.0636"
         id="text903"
         transform="scale(1.0374073,0.96394156)"><tspan
           sodipodi:role="line"
           x="314.01306"
           y="1669.0636"
           id="tspan901"
           style="stroke-width:1.82466578"><tspan
             x="314.01306"
             y="1669.0636"
             style="font-style:italic;font-variant:normal;font-weight:bold;font-stretch:normal;font-size:175.16790771px;font-family:sans-serif;-inkscape-font-specification:'sans-serif, Bold Italic';font-variant-ligatures:normal;font-variant-caps:normal;font-variant-numeric:normal;font-feature-settings:normal;text-align:start;writing-mode:lr-tb;text-anchor:start;fill:#ffa90a;fill-opacity:1;stroke-width:1.82466578"
             id="tspan899">Meister</tspan></tspan></text>
    </g>
    <path
       style="opacity:0;fill:#ffa90a;fill-opacity:1;fill-rule:nonzero;stroke:#b3b3b3;stroke-width:1.42857146;stroke-opacity:1"
       d="m 303.37972,395.02869 c 3.55546,-38.25531 25.72107,-76.43617 56.51435,-97.34749 l 8.70849,-5.91382 v 39.60237 c 0,44.65 -0.90283,50.59909 -9.4702,62.40275 -7.14284,9.84103 -10.78213,10.95848 -35.68906,10.95848 h -20.96531 z"
       id="path1752"
       inkscape:connector-curvature="0"
       transform="scale(0.26458333)" />
    <path
       style="opacity:0;fill:#ffa90a;fill-opacity:1;fill-rule:nonzero;stroke:#b3b3b3;stroke-width:1.42857146;stroke-opacity:1"
       d="m 358.97665,483.7758 c -7.88909,-0.45616 -10.64051,-1.17573 -11.6071,-3.03563 -1.28867,-2.47964 -4.48128,-19.2993 -4.48128,-23.60881 0,-2.1527 4.78898,-2.3993 53.21429,-2.74013 l 53.21428,-0.37453 0.47154,-4.1307 c 0.26783,-2.34619 -0.34933,-4.6511 -1.42857,-5.33527 -1.04506,-0.66252 -31.63225,-1.21442 -67.97154,-1.22645 l -66.07143,-0.0219 v -13.39897 -13.39897 l 17.5,-0.59886 c 15.08955,-0.51638 18.58225,-1.10772 25.35715,-4.29316 10.44262,-4.90994 18.06562,-12.72271 23.44077,-24.02432 l 4.41637,-9.28572 0.71428,-50.71428 0.71429,-50.71429 h 12.14286 12.14285 l 0.71429,17.12697 c 0.62659,15.02418 1.02965,17.18725 3.28291,17.61797 5.22602,0.99895 6.71709,-2.31298 6.71709,-14.91986 0,-6.58236 0.59626,-11.96794 1.32503,-11.96794 0.72876,0 6.46014,1.81718 12.7364,4.03817 44.05404,15.58948 75.35894,57.069 81.05284,107.39641 l 0.99024,8.75262 -34.83797,-0.45074 c -39.59932,-0.51234 -41.76784,-1.04921 -51.85952,-12.83907 -7.89752,-9.22648 -9.40702,-16.42155 -9.40702,-44.8389 0,-26.25778 -0.74005,-29.09066 -7.0743,-27.08024 -2.81152,0.89234 -2.9257,1.97401 -2.9257,27.71588 0,30.02925 1.25164,36.77191 8.94189,48.17058 2.54625,3.77411 7.56953,8.95923 11.16285,11.52249 10.93957,7.80365 18.88671,9.04138 58.05255,9.04138 h 34.69985 v 13.54461 13.5446 l -32.34538,0.38397 c -29.00043,0.34426 -32.50835,0.64249 -33.92126,2.88396 -2.27241,3.60497 0.52543,7.33871 6.1553,8.21428 l 4.59279,0.71429 -7.76169,12.85714 c -7.50368,12.42976 -7.96993,12.89149 -14.02643,13.89016 -7.52858,1.24141 -73.44306,2.42683 -88.03352,1.58323 z m 144.89809,-87.09613 c 1.29893,-3.38495 -1.4748,-6.94869 -5.40831,-6.94869 -3.49773,0 -5.12264,3.26085 -3.60096,7.22631 1.08599,2.83004 7.8973,2.62014 9.00927,-0.27762 z m -0.33605,-17.46172 c 1.42585,-4.49247 -0.62569,-7.54401 -4.74928,-7.06424 -3.7908,0.44104 -5.45078,3.68183 -3.92394,7.66072 1.16607,3.03875 7.66122,2.59206 8.67322,-0.59648 z"
       id="path1754"
       inkscape:connector-curvature="0"
       transform="scale(0.26458333)" />
    <path
       style="opacity:0;fill:#ffa90a;fill-opacity:1;fill-rule:nonzero;stroke:#b3b3b3;stroke-width:1.42857146;stroke-opacity:1"
       d="m 358.97665,483.7758 c -7.88909,-0.45616 -10.64051,-1.17573 -11.6071,-3.03563 -1.28867,-2.47964 -4.48128,-19.2993 -4.48128,-23.60881 0,-2.1527 4.78898,-2.3993 53.21429,-2.74013 l 53.21428,-0.37453 0.47154,-4.1307 c 0.26783,-2.34619 -0.34933,-4.6511 -1.42857,-5.33527 -1.04506,-0.66252 -31.63225,-1.21442 -67.97154,-1.22645 l -66.07143,-0.0219 v -13.39897 -13.39897 l 17.5,-0.59886 c 15.08955,-0.51638 18.58225,-1.10772 25.35715,-4.29316 10.44262,-4.90994 18.06562,-12.72271 23.44077,-24.02432 l 4.41637,-9.28572 0.71428,-50.71428 0.71429,-50.71429 h 12.14286 12.14285 l 0.71429,17.12697 c 0.62659,15.02418 1.02965,17.18725 3.28291,17.61797 5.22602,0.99895 6.71709,-2.31298 6.71709,-14.91986 0,-6.58236 0.59626,-11.96794 1.32503,-11.96794 0.72876,0 6.46014,1.81718 12.7364,4.03817 44.05404,15.58948 75.35894,57.069 81.05284,107.39641 l 0.99024,8.75262 -34.83797,-0.45074 c -39.59932,-0.51234 -41.76784,-1.04921 -51.85952,-12.83907 -7.89752,-9.22648 -9.40702,-16.42155 -9.40702,-44.8389 0,-26.25778 -0.74005,-29.09066 -7.0743,-27.08024 -2.81152,0.89234 -2.9257,1.97401 -2.9257,27.71588 0,30.02925 1.25164,36.77191 8.94189,48.17058 2.54625,3.77411 7.56953,8.95923 11.16285,11.52249 10.93957,7.80365 18.88671,9.04138 58.05255,9.04138 h 34.69985 v 13.54461 13.5446 l -32.34538,0.38397 c -29.00043,0.34426 -32.50835,0.64249 -33.92126,2.88396 -2.27241,3.60497 0.52543,7.33871 6.1553,8.21428 l 4.59279,0.71429 -7.76169,12.85714 c -7.50368,12.42976 -7.96993,12.89149 -14.02643,13.89016 -7.52858,1.24141 -73.44306,2.42683 -88.03352,1.58323 z m 144.89809,-87.09613 c 1.29893,-3.38495 -1.4748,-6.94869 -5.40831,-6.94869 -3.49773,0 -5.12264,3.26085 -3.60096,7.22631 1.08599,2.83004 7.8973,2.62014 9.00927,-0.27762 z m -0.33605,-17.46172 c 1.42585,-4.49247 -0.62569,-7.54401 -4.74928,-7.06424 -3.7908,0.44104 -5.45078,3.68183 -3.92394,7.66072 1.16607,3.03875 7.66122,2.59206 8.67322,-0.59648 z"
       id="path1756"
       inkscape:connector-curvature="0"
       transform="scale(0.26458333)" />
    <path
       style="opacity:0;fill:#ffa90a;fill-opacity:1;fill-rule:nonzero;stroke:#b3b3b3;stroke-width:1.42857146;stroke-opacity:1"
       d="m 358.97665,483.7758 c -7.88909,-0.45616 -10.64051,-1.17573 -11.6071,-3.03563 -1.28867,-2.47964 -4.48128,-19.2993 -4.48128,-23.60881 0,-2.1527 4.78898,-2.3993 53.21429,-2.74013 l 53.21428,-0.37453 0.47154,-4.1307 c 0.26783,-2.34619 -0.34933,-4.6511 -1.42857,-5.33527 -1.04506,-0.66252 -31.63225,-1.21442 -67.97154,-1.22645 l -66.07143,-0.0219 v -13.39897 -13.39897 l 17.5,-0.59886 c 15.08955,-0.51638 18.58225,-1.10772 25.35715,-4.29316 10.44262,-4.90994 18.06562,-12.72271 23.44077,-24.02432 l 4.41637,-9.28572 0.71428,-50.71428 0.71429,-50.71429 h 12.14286 12.14285 l 0.71429,17.12697 c 0.62659,15.02418 1.02965,17.18725 3.28291,17.61797 5.22602,0.99895 6.71709,-2.31298 6.71709,-14.91986 0,-6.58236 0.59626,-11.96794 1.32503,-11.96794 0.72876,0 6.46014,1.81718 12.7364,4.03817 44.05404,15.58948 75.35894,57.069 81.05284,107.39641 l 0.99024,8.75262 -34.83797,-0.45074 c -39.59932,-0.51234 -41.76784,-1.04921 -51.85952,-12.83907 -7.89752,-9.22648 -9.40702,-16.42155 -9.40702,-44.8389 0,-26.25778 -0.74005,-29.09066 -7.0743,-27.08024 -2.81152,0.89234 -2.9257,1.97401 -2.9257,27.71588 0,30.02925 1.25164,36.77191 8.94189,48.17058 2.54625,3.77411 7.56953,8.95923 11.16285,11.52249 10.93957,7.80365 18.88671,9.04138 58.05255,9.04138 h 34.69985 v 13.54461 13.5446 l -32.34538,0.38397 c -29.00043,0.34426 -32.50835,0.64249 -33.92126,2.88396 -2.27241,3.60497 0.52543,7.33871 6.1553,8.21428 l 4.59279,0.71429 -7.76169,12.85714 c -7.50368,12.42976 -7.96993,12.89149 -14.02643,13.89016 -7.52858,1.24141 -73.44306,2.42683 -88.03352,1.58323 z m 144.89809,-87.09613 c 1.29893,-3.38495 -1.4748,-6.94869 -5.40831,-6.94869 -3.49773,0 -5.12264,3.26085 -3.60096,7.22631 1.08599,2.83004 7.8973,2.62014 9.00927,-0.27762 z m -0.33605,-17.46172 c 1.42585,-4.49247 -0.62569,-7.54401 -4.74928,-7.06424 -3.7908,0.44104 -5.45078,3.68183 -3.92394,7.66072 1.16607,3.03875 7.66122,2.59206 8.67322,-0.59648 z"
       id="path1758"
       inkscape:connector-curvature="0"
       transform="scale(0.26458333)" />
    <path
       style="opacity:0;fill:#ffa90a;fill-opacity:1;fill-rule:nonzero;stroke:#b3b3b3;stroke-width:1.42857146;stroke-opacity:1"
       d="m 358.97665,483.7758 c -7.88909,-0.45616 -10.64051,-1.17573 -11.6071,-3.03563 -1.28867,-2.47964 -4.48128,-19.2993 -4.48128,-23.60881 0,-2.1527 4.78898,-2.3993 53.21429,-2.74013 l 53.21428,-0.37453 0.47154,-4.1307 c 0.26783,-2.34619 -0.34933,-4.6511 -1.42857,-5.33527 -1.04506,-0.66252 -31.63225,-1.21442 -67.97154,-1.22645 l -66.07143,-0.0219 v -13.39897 -13.39897 l 17.5,-0.59886 c 15.08955,-0.51638 18.58225,-1.10772 25.35715,-4.29316 10.44262,-4.90994 18.06562,-12.72271 23.44077,-24.02432 l 4.41637,-9.28572 0.71428,-50.71428 0.71429,-50.71429 h 12.14286 12.14285 l 0.71429,17.12697 c 0.62659,15.02418 1.02965,17.18725 3.28291,17.61797 5.22602,0.99895 6.71709,-2.31298 6.71709,-14.91986 0,-6.58236 0.59626,-11.96794 1.32503,-11.96794 0.72876,0 6.46014,1.81718 12.7364,4.03817 44.05404,15.58948 75.35894,57.069 81.05284,107.39641 l 0.99024,8.75262 -34.83797,-0.45074 c -39.59932,-0.51234 -41.76784,-1.04921 -51.85952,-12.83907 -7.89752,-9.22648 -9.40702,-16.42155 -9.40702,-44.8389 0,-26.25778 -0.74005,-29.09066 -7.0743,-27.08024 -2.81152,0.89234 -2.9257,1.97401 -2.9257,27.71588 0,30.02925 1.25164,36.77191 8.94189,48.17058 2.54625,3.77411 7.56953,8.95923 11.16285,11.52249 10.93957,7.80365 18.88671,9.04138 58.05255,9.04138 h 34.69985 v 13.54461 13.5446 l -32.34538,0.38397 c -29.00043,0.34426 -32.50835,0.64249 -33.92126,2.88396 -2.27241,3.60497 0.52543,7.33871 6.1553,8.21428 l 4.59279,0.71429 -7.76169,12.85714 c -7.50368,12.42976 -7.96993,12.89149 -14.02643,13.89016 -7.52858,1.24141 -73.44306,2.42683 -88.03352,1.58323 z m 144.89809,-87.09613 c 1.29893,-3.38495 -1.4748,-6.94869 -5.40831,-6.94869 -3.49773,0 -5.12264,3.26085 -3.60096,7.22631 1.08599,2.83004 7.8973,2.62014 9.00927,-0.27762 z m -0.33605,-17.46172 c 1.42585,-4.49247 -0.62569,-7.54401 -4.74928,-7.06424 -3.7908,0.44104 -5.45078,3.68183 -3.92394,7.66072 1.16607,3.03875 7.66122,2.59206 8.67322,-0.59648 z"
       id="path1760"
       inkscape:connector-curvature="0"
       transform="scale(0.26458333)" />
    <path
       style="opacity:0;fill:#ffa90a;fill-opacity:1;fill-rule:nonzero;stroke:#b3b3b3;stroke-width:1.42857146;stroke-opacity:1"
       d="m 358.97665,483.7758 c -7.88909,-0.45616 -10.64051,-1.17573 -11.6071,-3.03563 -1.28867,-2.47964 -4.48128,-19.2993 -4.48128,-23.60881 0,-2.1527 4.78898,-2.3993 53.21429,-2.74013 l 53.21428,-0.37453 0.47154,-4.1307 c 0.26783,-2.34619 -0.34933,-4.6511 -1.42857,-5.33527 -1.04506,-0.66252 -31.63225,-1.21442 -67.97154,-1.22645 l -66.07143,-0.0219 v -13.39897 -13.39897 l 17.5,-0.59886 c 15.08955,-0.51638 18.58225,-1.10772 25.35715,-4.29316 10.44262,-4.90994 18.06562,-12.72271 23.44077,-24.02432 l 4.41637,-9.28572 0.71428,-50.71428 0.71429,-50.71429 h 12.14286 12.14285 l 0.71429,17.12697 c 0.62659,15.02418 1.02965,17.18725 3.28291,17.61797 5.22602,0.99895 6.71709,-2.31298 6.71709,-14.91986 0,-6.58236 0.59626,-11.96794 1.32503,-11.96794 0.72876,0 6.46014,1.81718 12.7364,4.03817 44.05404,15.58948 75.35894,57.069 81.05284,107.39641 l 0.99024,8.75262 -34.83797,-0.45074 c -39.59932,-0.51234 -41.76784,-1.04921 -51.85952,-12.83907 -7.89752,-9.22648 -9.40702,-16.42155 -9.40702,-44.8389 0,-26.25778 -0.74005,-29.09066 -7.0743,-27.08024 -2.81152,0.89234 -2.9257,1.97401 -2.9257,27.71588 0,30.02925 1.25164,36.77191 8.94189,48.17058 2.54625,3.77411 7.56953,8.95923 11.16285,11.52249 10.93957,7.80365 18.88671,9.04138 58.05255,9.04138 h 34.69985 v 13.54461 13.5446 l -32.34538,0.38397 c -29.00043,0.34426 -32.50835,0.64249 -33.92126,2.88396 -2.27241,3.60497 0.52543,7.33871 6.1553,8.21428 l 4.59279,0.71429 -7.76169,12.85714 c -7.50368,12.42976 -7.96993,12.89149 -14.02643,13.89016 -7.52858,1.24141 -73.44306,2.42683 -88.03352,1.58323 z m 144.89809,-87.09613 c 1.29893,-3.38495 -1.4748,-6.94869 -5.40831,-6.94869 -3.49773,0 -5.12264,3.26085 -3.60096,7.22631 1.08599,2.83004 7.8973,2.62014 9.00927,-0.27762 z m -0.33605,-17.46172 c 1.42585,-4.49247 -0.62569,-7.54401 -4.74928,-7.06424 -3.7908,0.44104 -5.45078,3.68183 -3.92394,7.66072 1.16607,3.03875 7.66122,2.59206 8.67322,-0.59648 z"
       id="path1762"
       inkscape:connector-curvature="0"
       transform="scale(0.26458333)" />
    <path
       style="opacity:0;fill:#ffa90a;fill-opacity:1;fill-rule:nonzero;stroke:#b3b3b3;stroke-width:1.42857146;stroke-opacity:1"
       d="m 358.97665,483.7758 c -7.88909,-0.45616 -10.64051,-1.17573 -11.6071,-3.03563 -1.28867,-2.47964 -4.48128,-19.2993 -4.48128,-23.60881 0,-2.1527 4.78898,-2.3993 53.21429,-2.74013 l 53.21428,-0.37453 0.47154,-4.1307 c 0.26783,-2.34619 -0.34933,-4.6511 -1.42857,-5.33527 -1.04506,-0.66252 -31.63225,-1.21442 -67.97154,-1.22645 l -66.07143,-0.0219 v -13.39897 -13.39897 l 17.5,-0.59886 c 15.08955,-0.51638 18.58225,-1.10772 25.35715,-4.29316 10.44262,-4.90994 18.06562,-12.72271 23.44077,-24.02432 l 4.41637,-9.28572 0.71428,-50.71428 0.71429,-50.71429 h 12.14286 12.14285 l 0.71429,17.12697 c 0.62659,15.02418 1.02965,17.18725 3.28291,17.61797 5.22602,0.99895 6.71709,-2.31298 6.71709,-14.91986 0,-6.58236 0.59626,-11.96794 1.32503,-11.96794 0.72876,0 6.46014,1.81718 12.7364,4.03817 44.05404,15.58948 75.35894,57.069 81.05284,107.39641 l 0.99024,8.75262 -34.83797,-0.45074 c -39.59932,-0.51234 -41.76784,-1.04921 -51.85952,-12.83907 -7.89752,-9.22648 -9.40702,-16.42155 -9.40702,-44.8389 0,-26.25778 -0.74005,-29.09066 -7.0743,-27.08024 -2.81152,0.89234 -2.9257,1.97401 -2.9257,27.71588 0,30.02925 1.25164,36.77191 8.94189,48.17058 2.54625,3.77411 7.56953,8.95923 11.16285,11.52249 10.93957,7.80365 18.88671,9.04138 58.05255,9.04138 h 34.69985 v 13.54461 13.5446 l -32.34538,0.38397 c -29.00043,0.34426 -32.50835,0.64249 -33.92126,2.88396 -2.27241,3.60497 0.52543,7.33871 6.1553,8.21428 l 4.59279,0.71429 -7.76169,12.85714 c -7.50368,12.42976 -7.96993,12.89149 -14.02643,13.89016 -7.52858,1.24141 -73.44306,2.42683 -88.03352,1.58323 z m 144.89809,-87.09613 c 1.29893,-3.38495 -1.4748,-6.94869 -5.40831,-6.94869 -3.49773,0 -5.12264,3.26085 -3.60096,7.22631 1.08599,2.83004 7.8973,2.62014 9.00927,-0.27762 z m -0.33605,-17.46172 c 1.42585,-4.49247 -0.62569,-7.54401 -4.74928,-7.06424 -3.7908,0.44104 -5.45078,3.68183 -3.92394,7.66072 1.16607,3.03875 7.66122,2.59206 8.67322,-0.59648 z"
       id="path1764"
       inkscape:connector-curvature="0"
       transform="scale(0.26458333)" />
    <path
       style="opacity:0;fill:#ffa90a;fill-opacity:1;fill-rule:nonzero;stroke:#b3b3b3;stroke-width:1.42857146;stroke-opacity:1"
       d="m 358.97665,483.7758 c -7.88909,-0.45616 -10.64051,-1.17573 -11.6071,-3.03563 -1.28867,-2.47964 -4.48128,-19.2993 -4.48128,-23.60881 0,-2.1527 4.78898,-2.3993 53.21429,-2.74013 l 53.21428,-0.37453 0.47154,-4.1307 c 0.26783,-2.34619 -0.34933,-4.6511 -1.42857,-5.33527 -1.04506,-0.66252 -31.63225,-1.21442 -67.97154,-1.22645 l -66.07143,-0.0219 v -13.39897 -13.39897 l 17.5,-0.59886 c 15.08955,-0.51638 18.58225,-1.10772 25.35715,-4.29316 10.44262,-4.90994 18.06562,-12.72271 23.44077,-24.02432 l 4.41637,-9.28572 0.71428,-50.71428 0.71429,-50.71429 h 12.14286 12.14285 l 0.71429,17.12697 c 0.62659,15.02418 1.02965,17.18725 3.28291,17.61797 5.22602,0.99895 6.71709,-2.31298 6.71709,-14.91986 0,-6.58236 0.59626,-11.96794 1.32503,-11.96794 0.72876,0 6.46014,1.81718 12.7364,4.03817 44.05404,15.58948 75.35894,57.069 81.05284,107.39641 l 0.99024,8.75262 -34.83797,-0.45074 c -39.59932,-0.51234 -41.76784,-1.04921 -51.85952,-12.83907 -7.89752,-9.22648 -9.40702,-16.42155 -9.40702,-44.8389 0,-26.25778 -0.74005,-29.09066 -7.0743,-27.08024 -2.81152,0.89234 -2.9257,1.97401 -2.9257,27.71588 0,30.02925 1.25164,36.77191 8.94189,48.17058 2.54625,3.77411 7.56953,8.95923 11.16285,11.52249 10.93957,7.80365 18.88671,9.04138 58.05255,9.04138 h 34.69985 v 13.54461 13.5446 l -32.34538,0.38397 c -29.00043,0.34426 -32.50835,0.64249 -33.92126,2.88396 -2.27241,3.60497 0.52543,7.33871 6.1553,8.21428 l 4.59279,0.71429 -7.76169,12.85714 c -7.50368,12.42976 -7.96993,12.89149 -14.02643,13.89016 -7.52858,1.24141 -73.44306,2.42683 -88.03352,1.58323 z m 144.89809,-87.09613 c 1.29893,-3.38495 -1.4748,-6.94869 -5.40831,-6.94869 -3.49773,0 -5.12264,3.26085 -3.60096,7.22631 1.08599,2.83004 7.8973,2.62014 9.00927,-0.27762 z m -0.33605,-17.46172 c 1.42585,-4.49247 -0.62569,-7.54401 -4.74928,-7.06424 -3.7908,0.44104 -5.45078,3.68183 -3.92394,7.66072 1.16607,3.03875 7.66122,2.59206 8.67322,-0.59648 z"
       id="path1766"
       inkscape:connector-curvature="0"
       transform="scale(0.26458333)" />
    <path
       style="opacity:0;fill:#ffa90a;fill-opacity:1;fill-rule:nonzero;stroke:#b3b3b3;stroke-width:1.42857146;stroke-opacity:1"
       d="m 358.97665,483.7758 c -7.88909,-0.45616 -10.64051,-1.17573 -11.6071,-3.03563 -1.28867,-2.47964 -4.48128,-19.2993 -4.48128,-23.60881 0,-2.1527 4.78898,-2.3993 53.21429,-2.74013 l 53.21428,-0.37453 0.47154,-4.1307 c 0.26783,-2.34619 -0.34933,-4.6511 -1.42857,-5.33527 -1.04506,-0.66252 -31.63225,-1.21442 -67.97154,-1.22645 l -66.07143,-0.0219 v -13.39897 -13.39897 l 17.5,-0.59886 c 15.08955,-0.51638 18.58225,-1.10772 25.35715,-4.29316 10.44262,-4.90994 18.06562,-12.72271 23.44077,-24.02432 l 4.41637,-9.28572 0.71428,-50.71428 0.71429,-50.71429 h 12.14286 12.14285 l 0.71429,17.12697 c 0.62659,15.02418 1.02965,17.18725 3.28291,17.61797 5.22602,0.99895 6.71709,-2.31298 6.71709,-14.91986 0,-6.58236 0.59626,-11.96794 1.32503,-11.96794 0.72876,0 6.46014,1.81718 12.7364,4.03817 44.05404,15.58948 75.35894,57.069 81.05284,107.39641 l 0.99024,8.75262 -34.83797,-0.45074 c -39.59932,-0.51234 -41.76784,-1.04921 -51.85952,-12.83907 -7.89752,-9.22648 -9.40702,-16.42155 -9.40702,-44.8389 0,-26.25778 -0.74005,-29.09066 -7.0743,-27.08024 -2.81152,0.89234 -2.9257,1.97401 -2.9257,27.71588 0,30.02925 1.25164,36.77191 8.94189,48.17058 2.54625,3.77411 7.56953,8.95923 11.16285,11.52249 10.93957,7.80365 18.88671,9.04138 58.05255,9.04138 h 34.69985 v 13.54461 13.5446 l -32.34538,0.38397 c -29.00043,0.34426 -32.50835,0.64249 -33.92126,2.88396 -2.27241,3.60497 0.52543,7.33871 6.1553,8.21428 l 4.59279,0.71429 -7.76169,12.85714 c -7.50368,12.42976 -7.96993,12.89149 -14.02643,13.89016 -7.52858,1.24141 -73.44306,2.42683 -88.03352,1.58323 z m 144.89809,-87.09613 c 1.29893,-3.38495 -1.4748,-6.94869 -5.40831,-6.94869 -3.49773,0 -5.12264,3.26085 -3.60096,7.22631 1.08599,2.83004 7.8973,2.62014 9.00927,-0.27762 z m -0.33605,-17.46172 c 1.42585,-4.49247 -0.62569,-7.54401 -4.74928,-7.06424 -3.7908,0.44104 -5.45078,3.68183 -3.92394,7.66072 1.16607,3.03875 7.66122,2.59206 8.67322,-0.59648 z"
       id="path1768"
       inkscape:connector-curvature="0"
       transform="scale(0.26458333)" />
    <path
       style="opacity:0;fill:#ffa90a;fill-opacity:1;fill-rule:nonzero;stroke:#b3b3b3;stroke-width:1.42857146;stroke-opacity:1"
       d="m 358.97665,483.7758 c -7.88909,-0.45616 -10.64051,-1.17573 -11.6071,-3.03563 -1.28867,-2.47964 -4.48128,-19.2993 -4.48128,-23.60881 0,-2.1527 4.78898,-2.3993 53.21429,-2.74013 l 53.21428,-0.37453 0.47154,-4.1307 c 0.26783,-2.34619 -0.34933,-4.6511 -1.42857,-5.33527 -1.04506,-0.66252 -31.63225,-1.21442 -67.97154,-1.22645 l -66.07143,-0.0219 v -13.39897 -13.39897 l 17.5,-0.59886 c 15.08955,-0.51638 18.58225,-1.10772 25.35715,-4.29316 10.44262,-4.90994 18.06562,-12.72271 23.44077,-24.02432 l 4.41637,-9.28572 0.71428,-50.71428 0.71429,-50.71429 h 12.14286 12.14285 l 0.71429,17.12697 c 0.62659,15.02418 1.02965,17.18725 3.28291,17.61797 5.22602,0.99895 6.71709,-2.31298 6.71709,-14.91986 0,-6.58236 0.59626,-11.96794 1.32503,-11.96794 0.72876,0 6.46014,1.81718 12.7364,4.03817 44.05404,15.58948 75.35894,57.069 81.05284,107.39641 l 0.99024,8.75262 -34.83797,-0.45074 c -39.59932,-0.51234 -41.76784,-1.04921 -51.85952,-12.83907 -7.89752,-9.22648 -9.40702,-16.42155 -9.40702,-44.8389 0,-26.25778 -0.74005,-29.09066 -7.0743,-27.08024 -2.81152,0.89234 -2.9257,1.97401 -2.9257,27.71588 0,30.02925 1.25164,36.77191 8.94189,48.17058 2.54625,3.77411 7.56953,8.95923 11.16285,11.52249 10.93957,7.80365 18.88671,9.04138 58.05255,9.04138 h 34.69985 v 13.54461 13.5446 l -32.34538,0.38397 c -29.00043,0.34426 -32.50835,0.64249 -33.92126,2.88396 -2.27241,3.60497 0.52543,7.33871 6.1553,8.21428 l 4.59279,0.71429 -7.76169,12.85714 c -7.50368,12.42976 -7.96993,12.89149 -14.02643,13.89016 -7.52858,1.24141 -73.44306,2.42683 -88.03352,1.58323 z m 144.89809,-87.09613 c 1.29893,-3.38495 -1.4748,-6.94869 -5.40831,-6.94869 -3.49773,0 -5.12264,3.26085 -3.60096,7.22631 1.08599,2.83004 7.8973,2.62014 9.00927,-0.27762 z m -0.33605,-17.46172 c 1.42585,-4.49247 -0.62569,-7.54401 -4.74928,-7.06424 -3.7908,0.44104 -5.45078,3.68183 -3.92394,7.66072 1.16607,3.03875 7.66122,2.59206 8.67322,-0.59648 z"
       id="path1770"
       inkscape:connector-curvature="0"
       transform="scale(0.26458333)" />
  </g>
</svg>
